<svg width="18" height="16" viewBox="0 0 18 16" fill="none" xmlns="http://www.w3.org/2000/svg">
<path d="M16.7214 9.53802L8.98505 14.8911L1.24868 9.53802C1.14496 9.4654 1.06803 9.36341 1.02889 9.24664C0.989744 9.12987 0.990396 9.0043 1.03075 8.88791L1.91698 6.2736L3.68945 1.07958C3.70664 1.03726 3.73401 0.999364 3.76935 0.968927C3.82691 0.918869 3.90206 0.891113 3.98001 0.891113C4.05797 0.891113 4.13312 0.918869 4.19068 0.968927C4.228 1.00328 4.2555 1.04612 4.27058 1.09342L6.04305 6.2736H11.927L13.6995 1.07958C13.7167 1.03726 13.7441 0.999364 13.7794 0.968927C13.837 0.918869 13.9121 0.891113 13.9901 0.891113C14.068 0.891113 14.1432 0.918869 14.2007 0.968927C14.2381 1.00328 14.2656 1.04612 14.2806 1.09342L16.0531 6.28744L16.9757 8.88791C17.0124 9.00789 17.0074 9.13595 16.9616 9.25306C16.9158 9.37018 16.8316 9.47011 16.7214 9.53802V9.53802Z" stroke="black" stroke-linecap="round" stroke-linejoin="round"/>
</svg>
