<svg width="12" height="17" viewBox="0 0 12 17" fill="none" xmlns="http://www.w3.org/2000/svg">
<path d="M1 3.39111C1 2.72807 1.26339 2.09219 1.73223 1.62335C2.20107 1.15451 2.83696 0.891113 3.5 0.891113H6V5.89111H3.5C2.83696 5.89111 2.20107 5.62772 1.73223 5.15888C1.26339 4.69004 1 4.05415 1 3.39111Z" stroke="black" stroke-linecap="round" stroke-linejoin="round"/>
<path d="M6 0.891113H8.5C8.8283 0.891113 9.15339 0.955778 9.45671 1.08141C9.76002 1.20705 10.0356 1.3912 10.2678 1.62335C10.4999 1.85549 10.6841 2.13109 10.8097 2.4344C10.9353 2.73772 11 3.06281 11 3.39111C11 3.71942 10.9353 4.04451 10.8097 4.34782C10.6841 4.65114 10.4999 4.92673 10.2678 5.15888C10.0356 5.39103 9.76002 5.57518 9.45671 5.70081C9.15339 5.82645 8.8283 5.89111 8.5 5.89111H6V0.891113Z" stroke="black" stroke-linecap="round" stroke-linejoin="round"/>
<path d="M6 8.39111C6 8.06281 6.06466 7.73772 6.1903 7.4344C6.31594 7.13109 6.50009 6.85549 6.73223 6.62335C6.96438 6.3912 7.23998 6.20705 7.54329 6.08141C7.84661 5.95578 8.1717 5.89111 8.5 5.89111C8.8283 5.89111 9.15339 5.95578 9.45671 6.08141C9.76002 6.20705 10.0356 6.3912 10.2678 6.62335C10.4999 6.85549 10.6841 7.13109 10.8097 7.4344C10.9353 7.73772 11 8.06281 11 8.39111C11 8.71942 10.9353 9.04451 10.8097 9.34782C10.6841 9.65114 10.4999 9.92673 10.2678 10.1589C10.0356 10.391 9.76002 10.5752 9.45671 10.7008C9.15339 10.8264 8.8283 10.8911 8.5 10.8911C8.1717 10.8911 7.84661 10.8264 7.54329 10.7008C7.23998 10.5752 6.96438 10.391 6.73223 10.1589C6.50009 9.92673 6.31594 9.65114 6.1903 9.34782C6.06466 9.04451 6 8.71942 6 8.39111V8.39111Z" stroke="black" stroke-linecap="round" stroke-linejoin="round"/>
<path d="M1 13.3911C1 12.7281 1.26339 12.0922 1.73223 11.6233C2.20107 11.1545 2.83696 10.8911 3.5 10.8911H6V13.3911C6 14.0542 5.73661 14.69 5.26777 15.1589C4.79893 15.6277 4.16304 15.8911 3.5 15.8911C2.83696 15.8911 2.20107 15.6277 1.73223 15.1589C1.26339 14.69 1 14.0542 1 13.3911Z" stroke="black" stroke-linecap="round" stroke-linejoin="round"/>
<path d="M1 8.39111C1 7.72807 1.26339 7.09219 1.73223 6.62335C2.20107 6.15451 2.83696 5.89111 3.5 5.89111H6V10.8911H3.5C2.83696 10.8911 2.20107 10.6277 1.73223 10.1589C1.26339 9.69004 1 9.05415 1 8.39111Z" stroke="black" stroke-linecap="round" stroke-linejoin="round"/>
</svg>
