<svg width="17" height="18" viewBox="0 0 17 18" fill="none" xmlns="http://www.w3.org/2000/svg">
<path d="M11.7692 16.8911V13.9463C11.7981 13.5835 11.7485 13.2187 11.6239 12.8763C11.4992 12.5338 11.3023 12.2216 11.0462 11.9603C13.4615 11.6939 16 10.7884 16 6.63372C15.9998 5.57133 15.5867 4.54968 14.8462 3.78022C15.1968 2.85075 15.172 1.82337 14.7769 0.911501C14.7769 0.911501 13.8692 0.645174 11.7692 2.03768C10.0062 1.56501 8.14769 1.56501 6.38462 2.03768C4.28462 0.645174 3.37692 0.911501 3.37692 0.911501C2.98183 1.82337 2.95703 2.85075 3.30769 3.78022C2.56164 4.55539 2.14809 5.58627 2.15385 6.65655C2.15385 10.7808 4.69231 11.6863 7.10769 11.9831C6.85461 12.2418 6.65943 12.5503 6.53485 12.8885C6.41027 13.2268 6.35908 13.5872 6.38462 13.9463V16.8911M6.38462 14.6083C2.53846 15.7497 2.53846 12.706 1 12.3255L6.38462 14.6083Z" stroke="black" stroke-linecap="round" stroke-linejoin="round"/>
</svg>
