<svg width="17" height="17" viewBox="0 0 17 17" fill="none" xmlns="http://www.w3.org/2000/svg">
<path fill-rule="evenodd" clip-rule="evenodd" d="M4.26748 1.89111C2.4629 1.89111 1 3.35401 1 5.15859V12.6936C1 14.4981 2.4629 15.961 4.26748 15.961H11.8024C13.607 15.961 15.0699 14.4981 15.0699 12.6936V5.15859C15.0699 3.35401 13.607 1.89111 11.8024 1.89111H4.26748ZM0 5.15859C0 2.80173 1.91062 0.891113 4.26748 0.891113H11.8024C14.1593 0.891113 16.0699 2.80173 16.0699 5.15859V12.6936C16.0699 15.0504 14.1593 16.961 11.8024 16.961H4.26748C1.91062 16.961 0 15.0504 0 12.6936V5.15859ZM8.43643 6.40654C7.91337 6.32898 7.37916 6.41832 6.9098 6.66186C6.44044 6.9054 6.05983 7.29074 5.82209 7.76307C5.58436 8.2354 5.50161 8.77066 5.58562 9.29273C5.66962 9.81479 5.91611 10.2971 6.29002 10.671C6.66392 11.0449 7.14621 11.2914 7.66827 11.3754C8.19034 11.4594 8.72561 11.3766 9.19793 11.1389C9.67026 10.9012 10.0556 10.5206 10.2991 10.0512C10.5427 9.58184 10.632 9.04763 10.5545 8.52457C10.4753 7.99103 10.2267 7.49707 9.84533 7.11568C9.46393 6.73428 8.96997 6.48566 8.43643 6.40654ZM6.44923 5.77424C7.10529 5.43382 7.85199 5.30894 8.58311 5.41736C9.32889 5.52795 10.0193 5.87546 10.5524 6.40857C11.0855 6.94168 11.4331 7.63211 11.5436 8.37789C11.6521 9.10901 11.5272 9.85571 11.1868 10.5118C10.8463 11.1678 10.3077 11.6998 9.64752 12.0321C8.98732 12.3644 8.23914 12.4801 7.5094 12.3627C6.77967 12.2453 6.10555 11.9007 5.58291 11.3781C5.06027 10.8555 4.71574 10.1813 4.59832 9.4516C4.48089 8.72186 4.59656 7.97369 4.92886 7.31348C5.26116 6.65327 5.79317 6.11465 6.44923 5.77424ZM12.1792 4.28185C11.903 4.28185 11.6792 4.50571 11.6792 4.78185C11.6792 5.058 11.903 5.28185 12.1792 5.28185H12.1878C12.464 5.28185 12.6878 5.058 12.6878 4.78185C12.6878 4.50571 12.464 4.28185 12.1878 4.28185H12.1792Z" fill="black"/>
</svg>
